<svg xmlns="http://www.w3.org/2000/svg" width="33" height="36" viewBox="131.104 237.5 33 36"><path d="M156.504 273.5h-18c-.4 0-.7-.3-.7-.7l-1.4-18.8c-3-.3-5.3-2.9-5.3-6 0-3.3 2.8-6.1 6-6.1.7 0 1.4.1 2 .4 1.1-2.9 4.3-4.8 8.5-4.8 3.9 0 6.7 1.6 8.4 4.8.7-.3 1.4-.5 2.1-.5 3.3 0 6 2.8 6 6.1 0 3.1-2.3 5.6-5.3 6l-1.4 18.8c-.2.5-.5.8-.9.8zm-17.3-1.5h16.6l1.4-18.8c0-.4.4-.7.7-.7 2.5 0 4.5-2 4.5-4.5 0-2.7-2.4-4.6-4.5-4.6-.7 0-1.4.2-2 .6-.2.1-.4.2-.6.1-.2-.1-.4-.2-.5-.4-1.4-3.2-3.7-4.7-7.3-4.7-3.9 0-6.8 1.8-7.3 4.5 0 .2-.2.5-.4.6-.2.1-.5.1-.7-.1-.6-.4-1.3-.6-2-.6-2.1 0-4.5 1.9-4.5 4.6 0 2.5 2 4.5 4.5 4.5.4 0 .7.3.7.7l1.4 18.8z"/><path d="M157.004 267.5h-18.9c-.4 0-.8-.3-.8-.8 0-.4.3-.8.8-.8h18.9c.4 0 .8.3.8.8-.1.5-.4.8-.8.8z"/><path d="M143.804 267.5c-.4 0-.8-.3-.8-.8v-6c0-.4.3-.8.8-.8.4 0 .8.3.8.8v6c-.1.5-.4.8-.8.8zM147.504 267.5c-.4 0-.8-.3-.8-.8v-7.5c0-.4.3-.8.8-.8.4 0 .7.3.7.8v7.5c.1.5-.3.8-.7.8zM151.304 267.5c-.4 0-.8-.3-.8-.8v-6c0-.4.3-.8.8-.8s.7.3.7.8v6c0 .5-.3.8-.7.8z"/></svg>