<svg xmlns="http://www.w3.org/2000/svg" width="36.8" height="36.8" viewBox="0 0 36.8 36.8"><path fill="none" d="M18.4 30C12 30 6.8 24.8 6.8 18.4 6.8 12 12 6.8 18.4 6.8 24.8 6.8 30 12 30 18.4 30 24.8 24.8 30 18.4 30zm0-21.6c-5.5 0-10 4.5-10 10s4.5 10 10 10 10-4.5 10-10-4.5-10-10-10zm0 0M18.4 36.8c-.4 0-.8-.4-.8-.8v-3.9c0-.4.4-.8.8-.8s.8.4.8.8V36c0 .4-.4.8-.8.8zm0 0M18.4 5.5c-.4 0-.8-.4-.8-.8V.8c0-.4.4-.8.8-.8s.8.4.8.8v3.9c0 .5-.4.8-.8.8zm0 0M36 19.2h-3.9c-.4 0-.8-.4-.8-.8s.4-.8.8-.8H36c.4 0 .8.4.8.8s-.4.8-.8.8zm0 0M4.7 19.2H.8c-.4 0-.8-.4-.8-.8s.4-.8.8-.8h3.9c.4 0 .8.4.8.8s-.3.8-.8.8zm0 0M30.8 31.6c-.2 0-.4-.1-.6-.2l-2.8-2.8c-.3-.3-.3-.8 0-1.1.3-.3.8-.3 1.1 0l2.8 2.8c.3.3.3.8 0 1.1 0 .2-.3.2-.5.2zm0 0M8.7 9.5c-.2 0-.4-.1-.6-.2L5.4 6.5c-.3-.3-.3-.8 0-1.1.3-.3.8-.3 1.1 0l2.8 2.8c.3.3.3.8 0 1.1-.2.1-.4.2-.6.2zm0 0M28.1 9.5c-.2 0-.4-.1-.6-.2-.3-.3-.3-.8 0-1.1l2.8-2.8c.3-.3.8-.3 1.1 0s.3.8 0 1.1l-2.8 2.8c-.1.1-.3.2-.5.2zm0 0M6 31.6c-.2 0-.4-.1-.6-.2-.3-.3-.3-.8 0-1.1l2.8-2.8c.3-.3.8-.3 1.1 0s.3.8 0 1.1l-2.8 2.8c-.1.2-.3.2-.5.2zm0 0"/></svg>